<svg width="203" height="234" viewBox="0 0 203 234" xmlns="http://www.w3.org/2000/svg" xmlns:xlink="http://www.w3.org/1999/xlink"><title>OccLightRain</title><defs><rect id="a" width="81" height="81" rx="4"/><mask id="b" x="-1" y="-1" width="83" height="83"><path fill="#fff" d="M-1-1h83v83H-1z"/><use xlink:href="#a"/></mask></defs><g fill="none" fill-rule="evenodd"><use mask="url(#b)" xlink:href="#a" stroke-opacity=".01" stroke="#FFF" stroke-width="2" transform="translate(1 1)"/><path d="M136.395 151.333H71.306C51.255 151.333 35 135.078 35 115.027s16.255-36.306 36.306-36.306a36.15 36.15 0 0 1 16.773 4.098C95.065 62.556 114.301 48 136.937 48c28.535 0 51.667 23.132 51.667 51.667 0 .584-.01 1.167-.03 1.747 8.33 4.475 13.994 13.27 13.994 23.388 0 14.653-11.879 26.531-26.532 26.531h-39.641.542-.542z" fill="#FFF"/><path d="M97.374 160.781a3 3 0 0 1 5.795 1.553l-8.543 31.885a3 3 0 0 1-5.795-1.553l8.543-31.885zm33.945.195a3 3 0 0 1 5.795 1.553l-8.543 31.884a3 3 0 0 1-5.796-1.553l8.544-31.884zm17.19-.326a2.998 2.998 0 0 1 3.671-2.112 2.999 2.999 0 0 1 2.124 3.665l-4.923 18.37a2.998 2.998 0 0 1-3.671 2.113 2.999 2.999 0 0 1-2.124-3.665l4.922-18.37zm-32.943.584a3 3 0 0 1 3.673-2.117 2.995 2.995 0 0 1 2.122 3.67l-18.379 68.59a3 3 0 0 1-3.672 2.116 2.995 2.995 0 0 1-2.123-3.669l18.379-68.59z" fill="#AEE8FF"/></g></svg>