<svg width="203" height="150" viewBox="0 0 203 150" xmlns="http://www.w3.org/2000/svg" xmlns:xlink="http://www.w3.org/1999/xlink"><title>Cloudy</title><defs><rect id="a" width="81" height="81" rx="4"/><mask id="b" x="-1" y="-1" width="83" height="83"><path fill="#fff" d="M-1-1h83v83H-1z"/><use xlink:href="#a"/></mask></defs><g fill="none" fill-rule="evenodd"><use mask="url(#b)" xlink:href="#a" stroke-opacity=".01" stroke="#FFF" stroke-width="2" transform="translate(1 1)"/><path d="M136.395 149.333H71.306C51.255 149.333 35 133.078 35 113.027s16.255-36.306 36.306-36.306a36.15 36.15 0 0 1 16.773 4.098C95.065 60.556 114.301 46 136.937 46c28.535 0 51.667 23.132 51.667 51.667 0 .584-.01 1.167-.03 1.747 8.33 4.475 13.994 13.27 13.994 23.388 0 14.653-11.879 26.531-26.532 26.531h-39.641.542-.542z" fill="#FFF"/></g></svg>