<svg width="203" height="169" viewBox="0 0 203 169" xmlns="http://www.w3.org/2000/svg" xmlns:xlink="http://www.w3.org/1999/xlink"><title>OccLightSnow</title><defs><rect id="a" width="81" height="81" rx="4"/><mask id="b" x="-1" y="-1" width="83" height="83"><path fill="#fff" d="M-1-1h83v83H-1z"/><use xlink:href="#a"/></mask></defs><g fill="none" fill-rule="evenodd"><use mask="url(#b)" xlink:href="#a" stroke-opacity=".01" stroke="#FFF" stroke-width="2" transform="translate(1 1)"/><g fill="#FFF"><path d="M133.963 148.602h-6.523c-.007-2.13.005-4.504.005-4.504s5.43 3.16 6.545 3.724c-.023.26-.032.52-.027.78zm-20.558 0h-6.478a6.99 6.99 0 0 0-.024-.742c1.321-.992 6.542-3.762 6.542-3.762s-.047 2.36-.04 4.504zm-29.393 0H71.325C51.263 148.602 35 132.21 35 111.989c0-20.22 16.263-36.613 36.325-36.613a35.94 35.94 0 0 1 16.782 4.133c6.99-20.433 26.236-35.113 48.884-35.113 28.55 0 51.693 23.328 51.693 52.103 0 .59-.01 1.177-.029 1.762a26.78 26.78 0 0 1 14 23.585c0 14.777-11.884 26.756-26.545 26.756h-19.23a6.985 6.985 0 0 0-3.483-5.66s-.577-.32-1.45-.917a6.999 6.999 0 0 0-3.485-6.551 7.003 7.003 0 0 0-7.558.358c-.814-.529-6.917-3.832-6.917-3.832s5.802-2.964 7.011-3.765a6.999 6.999 0 0 0 7.464.291 7.003 7.003 0 0 0 3.47-6.717c1.421-.836 1.465-.75 1.465-.75 3.34-1.93 4.487-6.214 2.556-9.559-1.93-3.344-6.21-4.498-9.556-2.566 0 0-.157.121-1.515.8a7.003 7.003 0 0 0-10.895 6.395c-1.245.746-6.542 3.97-6.542 3.97s.015-6.867.075-7.809a7.003 7.003 0 0 0-.09-12.623c.034-1.227.015-1.674.015-1.674 0-3.858-3.137-6.993-7-6.993-3.86 0-7 3.129-7 6.993 0 0 .018.147.007 1.678a7.003 7.003 0 0 0 .033 12.672c-.065 1.839-.04 7.755-.04 7.755s-5.221-3.083-6.536-4.016a7.003 7.003 0 1 0-10.927-6.327c-1.36-.686-1.488-.82-1.488-.82-3.34-1.93-7.624-.78-9.556 2.565-1.93 3.344-.79 7.627 2.556 9.558 0 0 .318 0 1.46.797a7 7 0 0 0 10.971 6.356c.719.581 7.501 3.789 7.501 3.789s-5.712 2.875-7.448 3.825a7 7 0 0 0-11.03 6.234c-1.18.622-1.454.883-1.454.883a6.988 6.988 0 0 0-3.482 5.66z"/><path d="M117.445 137.196V155h-.996a3 3 0 1 0 0 6h.996v5.007a3.001 3.001 0 0 0 3 2.993c1.654 0 3-1.34 3-2.993V161h.997a3 3 0 1 0 0-6h-.997v-17.804l15.42 8.902-.5.863a3 3 0 1 0 5.197 3l.498-.863 4.337 2.504a3.001 3.001 0 0 0 4.091-1.102 2.998 2.998 0 0 0-1.091-4.094l-4.337-2.504.499-.863a3 3 0 1 0-5.197-3l-.498.863L126.445 132l15.42-8.902.497.863a3 3 0 1 0 5.197-3l-.499-.863 4.337-2.504a3.001 3.001 0 0 0 1.091-4.094 2.998 2.998 0 0 0-4.091-1.102l-4.337 2.504-.498-.863a3 3 0 1 0-5.196 3l.498.863-15.419 8.902V109h.997a3 3 0 1 0 0-6h-.997v-5.007a3.001 3.001 0 0 0-3-2.993c-1.653 0-3 1.34-3 2.993V103h-.996a3 3 0 1 0 0 6h.996v17.804l-15.418-8.902.498-.863a3 3 0 1 0-5.196-3l-.498.863-4.337-2.504a3.001 3.001 0 0 0-4.091 1.102 2.998 2.998 0 0 0 1.091 4.094l4.337 2.504-.499.863a3 3 0 1 0 5.197 3l.498-.863L114.445 132l-15.418 8.902-.498-.863a3 3 0 1 0-5.197 3l.499.863-4.337 2.504a3.001 3.001 0 0 0-1.091 4.094 2.998 2.998 0 0 0 4.091 1.102l4.337-2.504.498.863a3 3 0 1 0 5.196-3l-.498-.863 15.418-8.902z"/></g></g></svg>