<svg width="203" height="235" viewBox="0 0 203 235" xmlns="http://www.w3.org/2000/svg" xmlns:xlink="http://www.w3.org/1999/xlink"><title>CloudRainThunder</title><defs><rect id="a" width="81" height="81" rx="4"/><mask id="b" x="-1" y="-1" width="83" height="83"><path fill="#fff" d="M-1-1h83v83H-1z"/><use xlink:href="#a"/></mask></defs><g fill="none" fill-rule="evenodd"><use mask="url(#b)" xlink:href="#a" stroke-opacity=".01" stroke="#FFF" stroke-width="2" transform="translate(1 1)"/><path d="M182.732 151.569c11.403-3.05 19.803-13.5 19.803-25.923a26.838 26.838 0 0 0-14.073-23.645c.02-.586.029-1.175.029-1.766C188.49 71.386 165.225 48 136.526 48c-22.767 0-42.114 14.716-49.14 35.202a36.208 36.208 0 0 0-16.87-4.144C50.349 79.058 34 95.492 34 115.764c0 20.272 16.349 36.705 36.516 36.705h68.344l.483-1.807 10.987-41.182.792-2.968h35.798l-2.017 5.4-6.74 18.297H193.7l-2.993 5.83-7.975 15.53z" fill="#FFF"/><path d="M67.374 161.781a3 3 0 0 1 5.795 1.553l-8.543 31.885a3 3 0 0 1-5.795-1.553l8.543-31.885zm47.945.195a3 3 0 0 1 5.795 1.553l-8.543 31.884a3 3 0 0 1-5.796-1.553l8.544-31.884zm29.19-.326a2.998 2.998 0 0 1 3.671-2.112 2.999 2.999 0 0 1 2.124 3.665l-4.923 18.37a2.998 2.998 0 0 1-3.671 2.113 2.999 2.999 0 0 1-2.124-3.665l4.922-18.37zm-61.863.559a3.004 3.004 0 0 1 3.675-2.126 3.007 3.007 0 0 1 2.12 3.679l-13.197 49.253a3.004 3.004 0 0 1-3.676 2.126 3.007 3.007 0 0 1-2.12-3.678l13.198-49.254zm16.92.025a3 3 0 0 1 3.673-2.117 2.995 2.995 0 0 1 2.122 3.67l-18.379 68.59a3 3 0 0 1-3.672 2.116 2.995 2.995 0 0 1-2.123-3.669l18.379-68.59zm30.41-.25a3.004 3.004 0 0 1 3.674-2.125 3.007 3.007 0 0 1 2.12 3.678l-13.197 49.254a3.004 3.004 0 0 1-3.675 2.126 3.007 3.007 0 0 1-2.12-3.679l13.197-49.253z" fill="#AEE8FF"/><path d="M154 111l-11 41.182h18L156 195l31-60.303h-14.857L181 111z" fill="#FFF467"/></g></svg>