<svg width="222" height="189" viewBox="0 0 222 189" xmlns="http://www.w3.org/2000/svg" xmlns:xlink="http://www.w3.org/1999/xlink"><title>wind</title><defs><rect id="a" width="81" height="81" rx="4"/><mask id="b" x="-1" y="-1" width="83" height="83"><path fill="#fff" d="M-1-1h83v83H-1z"/><use xlink:href="#a"/></mask></defs><g fill="none" fill-rule="evenodd"><use mask="url(#b)" xlink:href="#a" stroke-opacity=".01" stroke="#FFF" stroke-width="2" transform="translate(1 1)"/><path d="M144 133H19.002A5.006 5.006 0 0 1 14 128c0-2.756 2.24-5 5.002-5h125.996c.214 0 .424.013.63.04C163.098 123.887 177 138.32 177 156c0 18.225-14.775 33-33 33a5 5 0 1 1 0-10c12.703 0 23-10.297 23-23s-10.297-23-23-23zm37.996-29.9c-.324-.065-.66-.1-1.004-.1H19.008A5.001 5.001 0 0 0 14 108c0 2.756 2.242 5 5.008 5h161.984c.344 0 .68-.035 1.005-.1.324.065.66.1 1.003.1 21.54 0 39-17.46 39-39s-17.46-39-39-39-39 17.46-39 39a5 5 0 1 0 10 0c0-16.016 12.984-29 29-29s29 12.984 29 29-12.984 29-29 29c-.344 0-.68.035-1.004.1zM14 148c0-2.761 2.238-5 5.006-5h95.988a5.007 5.007 0 0 1 5.006 5c0 2.761-2.238 5-5.006 5H19.006A5.007 5.007 0 0 1 14 148z" fill-opacity=".398" fill="#FFF"/></g></svg>