<?xml version="1.0" encoding="UTF-8" standalone="no"?>
<svg width="203px" height="234px" viewBox="0 0 203 234" version="1.1" xmlns="http://www.w3.org/2000/svg" xmlns:xlink="http://www.w3.org/1999/xlink">
    <!-- Generator: Sketch 40.3 (33839) - http://www.bohemiancoding.com/sketch -->
    <title>OccLightRain</title>
    <desc>Created with Sketch.</desc>
    <defs>
        <rect id="path-1" x="0" y="0" width="81" height="81" rx="4"></rect>
        <mask id="mask-2" maskContentUnits="userSpaceOnUse" maskUnits="objectBoundingBox" x="-1" y="-1" width="83" height="83">
            <rect x="-1" y="-1" width="83" height="83" fill="white"></rect>
            <use xlink:href="#path-1" fill="black"></use>
        </mask>
    </defs>
    <g id="Page-1" stroke="none" stroke-width="1" fill="none" fill-rule="evenodd">
        <g id="OccLightRain" transform="translate(1.000000, 1.000000)">
            <g id="bg" stroke-opacity="0.01" stroke="#FFFFFF" stroke-width="2">
                <use id="Rectangle-68" mask="url(#mask-2)" xlink:href="#path-1"></use>
            </g>
            <g id="icon" transform="translate(34.000000, 47.000000)">
                <g id="cloud-/-normal" fill="#FFFFFF">
                    <path d="M101.394795,103.333333 L36.3063063,103.333333 C16.254887,103.333333 0,87.0784463 0,67.027027 C0,46.9756077 16.254887,30.7207207 36.3063063,30.7207207 C42.3571912,30.7207207 48.0623481,32.2009586 53.0794176,34.819075 C60.065298,14.5564209 79.3012003,0 101.936937,0 C130.471649,0 153.603604,23.1319546 153.603604,51.6666667 C153.603604,52.2514893 153.593887,52.8340425 153.574606,53.4141737 C161.904202,57.8892085 167.567568,66.6841301 167.567568,76.8018018 C167.567568,91.4547621 155.688996,103.333333 141.036036,103.333333 L101.936937,103.333333 C101.855376,103.333318 101.394795,103.333333 101.394795,103.333333 L101.936937,103.333333 L101.394795,103.333333 Z" id="Oval-4"></path>
                </g>
                <g id="raindrop-/-low" transform="translate(53.000000, 110.000000)" fill="#AEE8FF">
                    <path d="M9.37389964,2.78142681 C9.80208284,1.18342537 11.4498296,0.236493526 13.0469714,0.664446387 C14.6473697,1.09327182 15.5972925,2.7376283 15.1694546,4.33434108 L6.62610036,36.2185732 C6.19791716,37.8165746 4.55017044,38.7635065 2.95302862,38.3355536 C1.35263031,37.9067282 0.402707499,36.2623717 0.8305454,34.6656589 L9.37389964,2.78142681 Z M43.3186485,2.97608363 C43.7468317,1.37808219 45.3945784,0.431150342 46.9917202,0.859103203 C48.5921185,1.28792864 49.5420414,2.93228512 49.1142035,4.5289979 L40.5708492,36.41323 C40.142666,38.0112314 38.4949193,38.9581633 36.8977775,38.5302104 C35.2973792,38.101385 34.3474564,36.4570285 34.7752943,34.8603157 L43.3186485,2.97608363 Z M60.5081458,2.6503256 C60.9356493,1.05486066 62.5828451,0.109985058 64.1799869,0.537937919 C65.7803852,0.966763354 66.7298835,2.61270425 66.3037008,4.20323987 L61.3813519,22.5736959 C60.9538484,24.1691608 59.3066526,25.1140364 57.7095108,24.6860836 C56.1091125,24.2572581 55.1596142,22.6113172 55.585797,21.0207816 L60.5081458,2.6503256 Z M27.5657495,3.23355325 C27.9938401,1.63589757 29.6415117,0.689246011 31.2386535,1.11719887 C32.8390518,1.54602431 33.7905247,3.18459577 33.3613045,4.78646752 L14.982491,73.3771331 C14.5544005,74.9747888 12.9067288,75.9214404 11.309587,75.4934875 C9.70918872,75.0646621 8.75771582,73.4260906 9.18693606,71.8242189 L27.5657495,3.23355325 Z" id="Rectangle-100"></path>
                </g>
            </g>
        </g>
    </g>
</svg>