<?xml version="1.0" encoding="UTF-8" standalone="no"?>
<svg width="203px" height="169px" viewBox="0 0 203 169" version="1.1" xmlns="http://www.w3.org/2000/svg" xmlns:xlink="http://www.w3.org/1999/xlink">
    <!-- Generator: Sketch 40.3 (33839) - http://www.bohemiancoding.com/sketch -->
    <title>OccLightSnow</title>
    <desc>Created with Sketch.</desc>
    <defs>
        <rect id="path-1" x="0" y="0" width="81" height="81" rx="4"></rect>
        <mask id="mask-2" maskContentUnits="userSpaceOnUse" maskUnits="objectBoundingBox" x="-1" y="-1" width="83" height="83">
            <rect x="-1" y="-1" width="83" height="83" fill="white"></rect>
            <use xlink:href="#path-1" fill="black"></use>
        </mask>
    </defs>
    <g id="Page-1" stroke="none" stroke-width="1" fill="none" fill-rule="evenodd">
        <g id="OccLightSnow" transform="translate(1.000000, 1.000000)">
            <g id="bg" stroke-opacity="0.01" stroke="#FFFFFF" stroke-width="2">
                <use id="Rectangle-68" mask="url(#mask-2)" xlink:href="#path-1"></use>
            </g>
            <g id="icon" transform="translate(34.000000, 43.000000)" fill="#FFFFFF">
                <g id="cloud-/-snow">
                    <path d="M98.9628139,104.601682 L92.439802,104.601682 C92.4326198,102.471551 92.4454789,100.098076 92.4454789,100.098076 C92.4454789,100.098076 97.8751693,103.257607 98.9903878,103.822232 C98.9665922,104.082233 98.9575098,104.342456 98.9628139,104.601682 Z M78.4047543,104.601682 L71.9269493,104.601682 C71.9320761,104.355075 71.9241928,104.107573 71.9030172,103.86023 C73.2241509,102.868013 78.4454789,100.098076 78.4454789,100.098076 C78.4454789,100.098076 78.3975287,102.457063 78.4047543,104.601682 Z M49.0119021,104.601682 L36.3253925,104.601682 C16.2634322,104.601682 -7.10542736e-15,88.2096391 -7.10542736e-15,67.9890291 C-7.10542736e-15,47.7684192 16.2634322,31.376376 36.3253925,31.376376 C42.3794584,31.376376 48.0876144,32.8691039 53.1073214,35.5093116 C60.0968743,15.0756844 79.3428889,0.396438803 101.990525,0.396438803 C130.540238,0.396438803 153.684353,23.7235771 153.684353,52.4990605 C153.684353,53.0888178 153.674631,53.6762865 153.655341,54.2613127 C161.989315,58.7741071 167.655658,67.6432389 167.655658,77.8462819 C167.655658,92.6228814 155.770842,104.601682 141.110179,104.601682 L121.879949,104.601682 C121.748957,102.329287 120.514805,100.164381 118.396803,98.9415524 C118.396803,98.9415524 117.820052,98.6217693 116.946154,98.0253824 C117.125691,95.4402378 115.857455,92.8566568 113.462139,91.4737206 C111.01556,90.0611875 108.067676,90.2953942 105.903773,91.8319915 C105.089885,91.3030829 98.9870591,88 98.9870591,88 C98.9870591,88 104.788623,85.0360283 105.998157,84.2350114 C108.152303,85.7127693 111.048919,85.919553 113.462139,84.5262794 C115.90632,83.115131 117.177338,80.4489338 116.931778,77.809177 C118.352954,76.9731062 118.396803,77.0584476 118.396803,77.0584476 C121.737418,75.1297428 122.883862,70.8451814 120.95252,67.5 C119.022087,64.1563909 114.742816,63.002271 111.396803,64.934092 C111.396803,64.934092 111.24022,65.0554459 109.881698,65.7347641 C107.732268,64.2844697 104.85881,64.0900022 102.462139,65.4737206 C100.036922,66.8739206 98.7667333,69.5097705 98.9870587,72.1293773 C97.7422211,72.8745873 92.4454789,76.0980759 92.4454789,76.0980759 C92.4454789,76.0980759 92.4596587,69.2321587 92.5195946,68.2901359 C94.8449102,67.1518709 96.4454789,64.7634908 96.4454789,62 C96.4454789,59.2036661 94.8026413,56.7886819 92.4294088,55.667546 C92.4640163,54.4402092 92.4454789,53.9925396 92.4454789,53.9925396 C92.4454789,50.13513 89.3081616,47 85.4454789,47 C81.5846117,47 78.4454789,50.1288976 78.4454789,53.9925396 C78.4454789,53.9925396 78.4627203,54.1400224 78.4516503,55.6711967 C76.0829699,56.793397 74.4454789,59.2048165 74.4454789,62 C74.4454789,64.8055686 76.0991851,67.2272645 78.4850851,68.343519 C78.419871,70.1818627 78.4454789,76.0980759 78.4454789,76.0980759 C78.4454789,76.0980759 73.2239755,73.0154814 71.9086763,72.0819119 C72.1107987,69.4779653 70.8415939,66.8667371 68.4288184,65.4737206 C66.0237587,64.0851587 63.1342639,64.2879194 60.9812894,65.7548886 C59.6221217,65.0692448 59.4941543,64.934092 59.4941543,64.934092 C56.1535396,63.0053872 51.8697787,64.1548186 49.9384373,67.5 C48.0080037,70.8436091 49.1481422,75.1266266 52.4941543,77.0584476 C52.4941543,77.0584476 52.8117534,77.0575943 53.9541119,77.8553901 C53.7265378,80.4800393 54.9966773,83.1220821 57.4288184,84.5262794 C59.8521622,85.9253977 62.7673348,85.7089058 64.9253222,84.2114351 C65.6440153,84.7922475 72.4263559,88 72.4263559,88 C72.4263559,88 66.7138931,90.8753866 64.9783659,91.8246327 C62.8158005,90.293015 59.8741391,90.061914 57.4288184,91.4737206 C55.0253991,92.8613353 53.7563391,95.4624872 53.9481578,98.0587376 C52.7673914,98.6814341 52.4941543,98.9415524 52.4941543,98.9415524 C50.379107,100.162675 49.1436044,102.328156 49.0119021,104.601682 Z" id="Oval-4"></path>
                </g>
                <g id="snow-/-midi" transform="translate(53.000000, 51.000000)">
                    <path d="M29.4454789,42.1961524 L29.4454789,60 L28.4488301,60 C26.7878578,60 25.4454789,61.3431458 25.4454789,63 C25.4454789,64.6534829 26.7901251,66 28.4488301,66 L29.4454789,66 L29.4454789,71.0074604 C29.4454789,72.6524219 30.7886247,74 32.4454789,74 C34.0989618,74 35.4454789,72.6601944 35.4454789,71.0074604 L35.4454789,66 L36.4421277,66 C38.1031,66 39.4454789,64.6568542 39.4454789,63 C39.4454789,61.3465171 38.1008327,60 36.4421277,60 L35.4454789,60 L35.4454789,42.1961524 L50.8640632,51.0980762 L50.3657388,51.9611994 C49.5352526,53.3996436 50.0272615,55.2337507 51.4621394,56.0621778 C52.8940976,56.8889193 54.7325387,56.3976801 55.5618912,54.9611994 L56.0602156,54.0980762 L60.3968035,56.6018064 C61.8213819,57.4242871 63.6599917,56.9348779 64.4884188,55.5 C65.3151603,54.0680418 64.8281131,52.232021 63.3968035,51.405654 L59.0602156,48.9019238 L59.55854,48.0388006 C60.3890262,46.6003564 59.8970173,44.7662493 58.4621394,43.9378222 C57.0301812,43.1110807 55.1917401,43.6023199 54.3623876,45.0388006 L53.8640632,45.9019238 L38.4454789,37 L53.8640632,28.0980762 L54.3623876,28.9611994 C55.1928738,30.3996436 57.0272615,30.890605 58.4621394,30.0621778 C59.8940976,29.2354364 60.3878925,27.3976801 59.55854,25.9611994 L59.0602156,25.0980762 L63.3968035,22.594346 C64.8213819,21.7718653 65.316846,19.9348779 64.4884188,18.5 C63.6616774,17.0680418 61.8281131,16.5718266 60.3968035,17.3981936 L56.0602156,19.9019238 L55.5618912,19.0388006 C54.731405,17.6003564 52.8970173,17.109395 51.4621394,17.9378222 C50.0301812,18.7645636 49.5363863,20.6023199 50.3657388,22.0388006 L50.8640632,22.9019238 L35.4454789,31.8038476 L35.4454789,14 L36.4421277,14 C38.1031,14 39.4454789,12.6568542 39.4454789,11 C39.4454789,9.34651712 38.1008327,8 36.4421277,8 L35.4454789,8 L35.4454789,2.99253964 C35.4454789,1.34757814 34.1023332,0 32.4454789,0 C30.791996,0 29.4454789,1.33980564 29.4454789,2.99253964 L29.4454789,8 L28.4488301,8 C26.7878578,8 25.4454789,9.34314575 25.4454789,11 C25.4454789,12.6534829 26.7901251,14 28.4488301,14 L29.4454789,14 L29.4454789,31.8038476 L14.0268946,22.9019238 L14.525219,22.0388006 C15.3557052,20.6003564 14.8636963,18.7662493 13.4288184,17.9378222 C11.9968602,17.1110807 10.1584191,17.6023199 9.32906657,19.0388006 L8.83074219,19.9019238 L4.49415431,17.3981936 C3.06957586,16.5757129 1.23096609,17.0651221 0.402538961,18.5 C-0.424202481,19.9319582 0.0628446773,21.767979 1.49415431,22.594346 L5.83074219,25.0980762 L5.33241781,25.9611994 C4.50193162,27.3996436 4.99394053,29.2337507 6.4288184,30.0621778 C7.86077658,30.8889193 9.69921769,30.3976801 10.5285702,28.9611994 L11.0268946,28.0980762 L26.4454789,37 L11.0268946,45.9019238 L10.5285702,45.0388006 C9.69808404,43.6003564 7.86369627,43.109395 6.4288184,43.9378222 C4.99686022,44.7645636 4.50306527,46.6023199 5.33241781,48.0388006 L5.83074219,48.9019238 L1.49415431,51.405654 C0.069575862,52.2281347 -0.425888164,54.0651221 0.402538961,55.5 C1.2292804,56.9319582 3.06284468,57.4281734 4.49415431,56.6018064 L8.83074219,54.0980762 L9.32906657,54.9611994 C10.1595528,56.3996436 11.9939405,56.890605 13.4288184,56.0621778 C14.8607766,55.2354364 15.3545715,53.3976801 14.525219,51.9611994 L14.0268946,51.0980762 L29.4454789,42.1961524 Z" id="Rectangle-100"></path>
                </g>
            </g>
        </g>
    </g>
</svg>