<?xml version="1.0" encoding="UTF-8" standalone="no"?>
<svg width="222px" height="189px" viewBox="0 0 222 189" version="1.1" xmlns="http://www.w3.org/2000/svg" xmlns:xlink="http://www.w3.org/1999/xlink">
    <!-- Generator: Sketch 40.3 (33839) - http://www.bohemiancoding.com/sketch -->
    <title>wind</title>
    <desc>Created with Sketch.</desc>
    <defs>
        <rect id="path-1" x="0" y="0" width="81" height="81" rx="4"></rect>
        <mask id="mask-2" maskContentUnits="userSpaceOnUse" maskUnits="objectBoundingBox" x="-1" y="-1" width="83" height="83">
            <rect x="-1" y="-1" width="83" height="83" fill="white"></rect>
            <use xlink:href="#path-1" fill="black"></use>
        </mask>
    </defs>
    <g id="Page-1" stroke="none" stroke-width="1" fill="none" fill-rule="evenodd">
        <g id="wind" transform="translate(1.000000, 1.000000)">
            <g id="bg" stroke-opacity="0.01" stroke="#FFFFFF" stroke-width="2">
                <use id="Rectangle-68" mask="url(#mask-2)" xlink:href="#path-1"></use>
            </g>
            <g id="icon" transform="translate(13.000000, 34.000000)" fill-opacity="0.397984601" fill="#FFFFFF">
                <path d="M130,98 L5.00160372,98 C2.24706566,98 0,95.7614237 0,93 C0,90.2441952 2.23929426,88 5.00160372,88 L130.998396,88 C131.2117,88 131.42196,88.0134236 131.628369,88.0394742 C149.097359,88.8883187 163,103.320591 163,121 C163,139.225397 148.225397,154 130,154 C127.238576,154 125,151.761424 125,149 C125,146.238576 127.238576,144 130,144 C142.702549,144 153,133.702549 153,121 C153,108.297451 142.702549,98 130,98 Z M167.996158,68.1007996 C167.671673,68.0347108 167.335782,68 166.99179,68 L5.00820971,68 C2.23762275,68 0,70.2385763 0,73 C0,75.7558048 2.24225186,78 5.00820971,78 L166.99179,78 C167.336321,78 167.672611,77.9653834 167.99738,77.8994494 C168.321302,77.9653834 168.656609,78 169,78 C190.539105,78 208,60.5391052 208,39 C208,17.4608948 190.539105,0 169,0 C147.460895,0 130,17.4608948 130,39 C130,41.7614237 132.238576,44 135,44 C137.761424,44 140,41.7614237 140,39 C140,22.9837423 152.983742,10 169,10 C185.016258,10 198,22.9837423 198,39 C198,55.0162577 185.016258,68 169,68 C168.656177,68 168.320459,68.0347038 167.996158,68.1007996 Z M0,113 C0,110.238576 2.23841756,108 5.00580193,108 L100.994198,108 C103.758826,108 106,110.244195 106,113 C106,115.761424 103.761582,118 100.994198,118 L5.00580193,118 C2.24117387,118 0,115.755805 0,113 Z" id="Rectangle-26"></path>
            </g>
        </g>
    </g>
</svg>